<?xml version="1.0" standalone="no"?><!DOCTYPE svg PUBLIC "-//W3C//DTD SVG 1.1//EN" "http://www.w3.org/Graphics/SVG/1.1/DTD/svg11.dtd"><svg t="1753434037609" class="icon" viewBox="0 0 1024 1024" version="1.1" xmlns="http://www.w3.org/2000/svg" p-id="1241" xmlns:xlink="http://www.w3.org/1999/xlink" width="200" height="200"><path d="M853.5 437.2c-8.2-74.2-68-134-142.2-142.2-10-1.1-20-1.2-29.9-0.5-24.5-73-92.8-123.5-172.3-123.5-79.1 0-147.4 50.3-172.1 123.1-8.1-0.3-16.2-0.1-24.3 0.8-74.2 8.2-134 68-142.2 142.2-5.1 45.9 9.6 91.8 40.2 126 23.8 26.6 55.7 44.4 90.2 51V800c0 29.2 23.8 53 53 53h316.3c29.2 0 53-23.8 53-53V614.1c34.6-6.6 66.4-24.4 90.2-51 30.6-34.1 45.2-80 40.1-125.9z m-85 85.8c-19.2 21.5-46.7 33.8-75.5 33.8h-30.1v236.1H605v-148h-60.2v148h-57.9v-148h-60.2v148h-65.6V556.7H331c-28.8 0-56.3-12.3-75.5-33.7-19.5-21.7-28.4-49.9-25.2-79.2 5.1-46.4 42.6-83.9 89-89 29.3-3.2 57.5 5.7 79.2 25.2 21.4 19.2 33.7 46.7 33.7 75.5h60.2c0-45.9-19.6-89.7-53.8-120.3-12.7-11.4-27.1-20.6-42.5-27.4 18.1-45.5 62.2-76.5 113-76.5 51.8 0 96.5 32 113.9 78.8-13.6 6.5-26.3 14.9-37.8 25.1-34.2 30.6-53.8 74.5-53.8 120.3h60.2c0-28.8 12.3-56.3 33.7-75.5 21.7-19.5 49.9-28.4 79.2-25.2 46.4 5.1 83.9 42.6 89 89 3.4 29.3-5.5 57.4-25 79.2z" fill="#FD5F29" p-id="1242"></path></svg>